<?xml version="1.0" encoding="UTF-8" standalone="no"?><!DOCTYPE svg PUBLIC "-//W3C//DTD SVG 1.1//EN" "http://www.w3.org/Graphics/SVG/1.1/DTD/svg11.dtd"><svg width="100%" height="100%" viewBox="0 0 2084 2084" version="1.1" xmlns="http://www.w3.org/2000/svg" xmlns:xlink="http://www.w3.org/1999/xlink" xml:space="preserve" xmlns:serif="http://www.serif.com/" style="fill-rule:evenodd;clip-rule:evenodd;stroke-linejoin:round;stroke-miterlimit:2;"><path d="M898.908,351.423c380.955,-78.791 754.211,166.529 833.002,547.485c78.791,380.955 -166.528,754.211 -547.484,833.002c-380.956,78.791 -754.212,-166.528 -833.003,-547.484c-78.791,-380.956 166.529,-754.212 547.485,-833.003Z" style="fill:none;"/><g><path d="M854.391,1236.97c0,-0 -77.22,45.53 -185.977,64.886c-108.782,19.356 -214.578,2.528 -227.32,6.027c-12.768,3.472 66.419,93.41 231.789,74.462c165.395,-18.948 268.764,-96.066 268.764,-96.066c-0,0 -26.276,-73.977 -87.256,-49.309Z" style="fill-rule:nonzero;"/><path d="M1529.61,837.209c-0,-0 -37.742,-70.122 -112.204,-72.931c-67.517,-2.553 -179.543,33.657 -280.511,56.103c-100.994,22.42 -129.058,11.21 -185.16,39.274c-56.103,28.038 -123.415,61.694 -190.727,61.694c-67.338,0 -117.822,-44.866 -129.058,-89.758c-11.21,-44.892 -39.248,-134.65 56.102,-151.478c95.376,-16.829 173.924,33.656 218.817,44.891c44.866,11.211 129.032,22.446 134.65,-16.828c5.592,-39.274 -16.829,-78.548 -39.275,-78.548c-22.446,0 -33.656,22.446 -50.509,22.446c-16.828,0 -111.005,-108.731 -301.757,-101.249c-190.778,7.482 -224.434,209.444 -224.434,302.957c0,93.512 89.758,235.644 142.132,273.054c52.374,37.41 112.204,59.856 112.204,59.856c0,-0 22.447,-29.928 59.857,-11.236c37.41,18.692 11.21,41.138 56.102,63.584c44.891,22.446 115.958,14.964 119.686,26.2c3.754,11.21 -37.384,33.656 -26.174,52.348c11.21,18.718 56.102,11.236 56.102,11.236c-0,-0 63.584,18.692 112.205,22.421c48.645,3.753 67.337,3.753 67.337,3.753c0,0 22.446,37.41 56.102,59.856l33.656,22.421c0,-0 -26.174,52.373 11.236,82.301c37.385,29.928 41.138,0 86.03,0c44.867,0 89.758,-7.481 149.615,-37.41c59.83,-29.927 86.03,22.447 112.204,-22.445c26.174,-44.867 14.964,-74.795 86.03,-74.795c71.066,0 127.168,-29.928 138.378,-89.784c11.237,-59.83 -48.619,-100.994 -56.102,-179.542c-7.482,-78.523 -41.138,-134.65 -93.511,-164.553c-52.349,-29.928 -119.023,-113.838 -119.023,-113.838Z" style="fill-rule:nonzero;"/><path d="M704.19,1169.84c-0,0 -82.277,35.546 -192.617,41.164c-110.34,5.592 -213.198,-24.31 -226.301,-22.446c-13.071,1.864 54.238,100.994 220.683,102.858c166.443,1.864 278.672,-61.72 278.672,-61.72c0,-0 -16.853,-76.684 -80.437,-59.856Z" style="fill-rule:nonzero;"/><path d="M868.768,906.155c-0,0 -7.482,108.477 -48.62,134.651c0,-0 37.41,-102.859 48.62,-134.651Z" style="fill-rule:nonzero;"/><path d="M945.452,870.61c-0,-0 -13.1,13.099 -31.792,67.337c-18.693,54.238 -22.446,80.413 -22.446,80.413c-0,-0 -9.346,-61.72 5.618,-87.895c14.964,-26.174 48.62,-59.855 48.62,-59.855Z" style="fill-rule:nonzero;"/><path d="M1129.66,991.517c0,0 -40.537,-4.932 -30.313,16.19c7.382,15.264 30.313,-16.19 30.313,-16.19Z" style="fill-rule:nonzero;"/></g><g><path d="M893.078,1164.25c33.682,-26.2 52.374,3.728 89.784,-18.718c37.41,-22.446 18.692,-93.512 18.692,-93.512c-0,-0 22.446,29.928 33.657,63.584c11.235,33.682 7.481,115.958 -18.693,138.404c-26.174,22.446 -29.928,48.62 0,56.102c29.928,7.482 56.102,-3.728 100.994,14.964c44.892,18.692 67.312,-18.692 82.277,-44.892c14.963,-26.174 3.753,-63.584 11.235,-104.722c7.483,-41.138 71.066,-153.342 127.169,-164.578c56.102,-11.211 119.686,-59.831 119.686,-59.831c0,0 -29.928,67.313 -86.03,78.548c-56.102,11.211 -97.24,78.549 -123.415,134.651c-26.199,56.102 7.482,100.994 -18.717,130.896c-26.175,29.928 -14.965,142.133 -14.965,142.133l-33.656,-22.421c-33.656,-22.446 -56.102,-59.856 -56.102,-59.856c0,0 -18.692,0 -67.337,-3.753c-48.621,-3.729 -112.205,-22.421 -112.205,-22.421c-0,-0 -44.892,7.482 -56.102,-11.236c-11.21,-18.692 29.928,-41.138 26.174,-52.348c-3.728,-11.236 -74.795,-3.754 -119.686,-26.2c93.512,0 63.584,-48.62 97.24,-74.794Z" style="fill:#fff;fill-rule:nonzero;"/><path d="M1225.99,1519.58c-5.873,-4.698 -10.163,-9.933 -13.253,-15.423c11.21,-7.635 22.42,-15.296 33.631,-22.931c6.792,-4.622 14.275,-9.449 22.446,-8.861c15.194,1.072 42.236,8.171 54.417,17.287c17.951,13.432 44.125,6.282 62.588,-6.434c18.463,-12.743 14.07,-19.842 34.55,-29.009c26.021,-11.645 63.839,-13.662 70.3,-41.419c1.43,-6.129 1.123,-13.279 5.618,-17.645c6.511,-6.308 17.058,-2.043 25.995,-0.69c25.74,3.856 48.109,-22.063 50.51,-47.956c2.375,-25.893 -9.244,-50.791 -20.582,-74.207c18.36,-12.743 40.27,9.576 52.936,27.987c12.666,18.437 41.087,35.954 53.906,17.62c3.881,-5.567 4.724,-13.356 10.087,-17.518c11.235,-8.733 27.221,6.742 41.035,3.422c15.016,-3.601 16.063,-24.668 11.798,-39.504c-17.645,-61.337 -65.474,-108.553 -111.463,-152.806c36.26,12.844 72.521,25.714 108.807,38.559c-9.933,-22.548 -19.866,-45.122 -29.8,-67.67c-3.345,-7.635 -6.767,-16.139 -4.086,-24.029c1.967,-5.873 6.946,-10.112 10.394,-15.271c16.419,-24.616 -37.845,-79.212 -58.912,-99.998c13.611,6.665 47.957,24.642 60.929,41.496c32.43,38.891 39.708,82.608 44.304,131.024c7.483,78.548 67.339,119.712 56.102,179.542c-11.21,59.856 -67.312,89.784 -138.378,89.784c-71.066,0 -59.856,29.928 -86.03,74.795c-26.174,44.892 -52.374,-7.482 -112.204,22.445c-59.857,29.929 -104.748,37.41 -149.615,37.41c-44.892,0 -48.645,29.928 -86.03,0Z" style="fill:#fff;fill-rule:nonzero;"/><path d="M1041.52,708.176c-2.528,17.62 -20.914,25.077 -44.458,26.915c-9.704,-1.021 -19.586,-2.63 -27.375,-8.35c-8.861,-6.461 -13.432,-20.122 -6.536,-28.651c5.949,-7.431 17.875,-8.299 23.083,-16.292c9.066,-13.968 7.074,-51.965 36.057,-41.981c13.611,14.198 23.085,41.266 19.229,68.359Z" style="fill:#fff;fill-rule:nonzero;"/><path d="M966.289,646.916c-4.724,6.46 -11.695,12.283 -15.934,16.19c-6.691,6.128 -16.7,10.291 -24.745,6.128c-13.61,-7.048 -14.044,-33.196 -29.366,-32.507c-5.898,0.281 -10.674,5.184 -16.47,6.307c-20.148,3.908 -25.332,-34.7 -45.811,-35.877c-6.308,-0.355 -12.283,3.268 -18.59,3.268c-18.131,0.026 -25.357,-26.963 -43.105,-30.617c-8.172,-1.66 -16.496,2.17 -24.821,1.787c-12.921,-0.562 -22.957,-10.75 -33.528,-18.23c-7.789,-5.518 -16.522,-9.655 -25.638,-12.436c165.114,7.046 247.799,101.145 263.453,101.145c5.234,0 9.908,-2.17 14.555,-5.158Z" style="fill:#fff;fill-rule:nonzero;"/><path d="M603.732,918.642c-26.225,13.407 -52.45,26.839 -78.676,40.245c25.383,-18.386 50.765,-36.797 76.148,-55.183c7.022,-5.107 14.938,-13.253 11.21,-21.093c-36.542,0.102 -73.058,5.567 -108.042,16.165c19.867,-18.156 47.012,-25.562 73.058,-32.354c3.294,-5.516 -5.72,-9.959 -12.155,-10.164c-20.582,-0.664 -41.189,-1.327 -61.796,-1.991c15.959,-8.963 31.945,-17.952 47.905,-26.915c3.293,-1.839 6.869,-4.06 7.941,-7.686c1.685,-5.874 -38.074,-8.785 -40.27,-14.505c-2.196,-5.72 40.015,-16.062 42.543,-10.495c2.988,-10.572 -11.057,-17.492 -22.012,-18.386c-10.955,-0.893 -25.076,-2.783 -27.451,-13.508c12.334,-1.2 24.693,-2.4 37.027,-3.601c15.704,-1.532 27.859,-23.212 -0.179,-45.658c8.019,-2.043 29.749,5.848 37.767,3.805c-15.78,-11.44 -27.833,-34.295 -45.249,-43.079c19.229,0.051 33.784,12.743 53.012,12.768c4.495,0 9.653,-0.281 12.462,-3.805c5.235,-6.511 -0.792,-19.918 7.099,-22.65c3.983,-1.379 8.172,1.89 12.359,1.609c5.746,-0.383 9.04,-7.457 7.661,-13.049c-1.226,-5.082 -5.669,-10.265 -9.295,-13.738c13.764,-11.721 24.565,12.155 35.546,17.773c11.568,5.898 25.638,3.6 37.231,10.239c6.486,3.703 11.133,8.453 14.453,13.867c-7.865,0.51 -15.832,1.43 -23.978,2.86c-95.35,16.828 -67.312,106.586 -56.102,151.478c11.236,44.892 61.72,89.758 129.058,89.758c15.015,0 30.055,-1.736 44.969,-4.673c-40.96,38.815 -71.68,88.456 -87.665,142.592c-4.29,-36.925 12.155,-72.751 28.166,-106.305c-24.054,-9.628 -49.233,9.524 -68.104,27.297c-22.165,20.914 -44.33,41.802 -66.495,62.691c17.262,-36.9 42.926,-69.866 74.488,-95.632c8.554,-6.997 0.179,-22.446 -10.828,-23.748c-10.98,-1.277 -20.964,5.95 -29.646,12.819c-28.703,22.752 -57.099,45.939 -85.137,69.508c20.327,-39.861 57.328,-68.104 93.129,-94.942c-15.5,-8.427 -34.448,-0.357 -50.152,7.686Z" style="fill:#fff;fill-rule:nonzero;"/><path d="M1475.04,811.954c-31.077,-25.893 -117.822,-33.656 -196.345,-0c-78.548,33.682 -213.198,28.064 -246.854,44.892c-33.682,16.828 112.204,50.484 218.79,16.828c106.587,-33.656 151.479,-44.867 201.963,-16.828c50.51,28.064 100.994,78.548 100.994,78.548c0,-0 -11.21,-67.338 -78.548,-123.44Z" style="fill:#fff;fill-rule:nonzero;"/><path d="M1150.42,980.763c2.021,-16.313 -61.042,-3.042 -73.25,18.312c-12.208,21.354 24.417,33.563 42.729,24.417c18.312,-9.167 27.459,-18.313 30.521,-42.729Z" style="fill:#fff;fill-rule:nonzero;"/></g></svg>